<svg width="142" height="115" viewBox="0 0 142 115" fill="none" xmlns="http://www.w3.org/2000/svg"><path d="M99.54 97.031c0-3.2 1.899-6.32 4.728-7.76l8.79-3.72 3.475-8.427a9.288 9.288 0 014.317-4.32l.02-44.054c0-3.969-3.184-7.188-7.11-7.188s-7.11 3.22-7.11 7.188l-.004 25.156c0 1.985-1.588 3.594-3.551 3.594-1.962 0-3.57-1.61-3.57-3.594l.014-39.531c0-3.969-3.183-7.188-7.11-7.188-3.926 0-7.11 3.22-7.11 7.188l-.014 39.531c0 1.985-1.579 3.594-3.542 3.594-1.962 0-3.576-1.617-3.576-3.594l.022-46.718C78.21 3.217 75.025 0 71.1 0s-7.11 3.219-7.11 7.188l-.022 46.718c0 1.977-1.578 3.594-3.533 3.594-1.955 0-3.577-1.617-3.577-3.594l.022-39.531c0-3.969-3.184-7.188-7.11-7.188s-7.11 3.22-7.11 7.188v62.756L29.394 63.72a8.835 8.835 0 00-6.288-2.627c-4.737 0-8.888 3.863-8.888 8.984 0 2.298.868 4.598 2.605 6.352l25.13 25.403C50.346 110.328 61.522 115 73.387 115h8.376c9.492 0 18.2-3.441 24.974-9.148l-2.01-.848c-3.278-1.661-5.188-4.761-5.188-7.973zM77.72 83.465l-6.62 2.583-2.76 6.689c-.33.476-.485.7-.796.7a.96.96 0 01-.795-.498l-2.76-6.891-6.619-2.79c-.469-.13-.491-.287-.491-.804 0-.306.22-.666.49-.803l6.62-2.588 2.76-6.692c.129-.474.484-.496.795-.496a.96.96 0 01.795.498l2.76 6.69 6.62 2.79c.268.13.49.489.49.601 0 .517-.222.674-.489 1.01zM17.773 50.312c.506 0 1.099-.371 1.325-.83l4.599-11.148 11.032-4.651c.45-.228.818-.83.819-1.339-.2-.517-.377-1.1-.821-1.348L23.706 26.37l-4.608-11.163c-.227-.46-.818-.831-1.325-.831-.506 0-1.1.37-1.324.831l-4.6 11.14-11.03 4.65c-.45.247-.818.831-.819 1.146 0 .508.37 1.112.82 1.34l11.013 4.642 4.615 11.157c.226.65.819 1.032 1.325 1.032zM142 97.032c-.001-.512-.368-1.113-.819-1.341l-11.014-4.643-4.615-11.156c-.039-.448-.616-.83-1.127-.83-.507 0-1.102.372-1.328.83l-4.599 11.148-11.03 4.651c-.45.229-.818.828-.819 1.339.001.508.369 1.112.819 1.34l11.014 4.643 4.615 11.156c.239.449.817.831 1.328.831.506 0 1.096-.372 1.322-.831l4.599-11.147 11.032-4.652c.444-.238.622-.822.622-1.339z" fill="#DDD"/></svg>