<svg width="157" height="110" viewBox="0 0 157 110" fill="none" xmlns="http://www.w3.org/2000/svg"><path d="M45.138 13.75c0 7.587-6.158 13.75-13.738 13.75-7.587 0-13.737-6.163-13.737-13.75C17.663 6.156 23.813 0 31.4 0c7.58 0 13.738 6.156 13.738 13.75zm5.985 26.592C43.837 46.824 39.25 56.277 39.25 66.785c0 8.422 2.723 16.156 7.85 22.22v5.28a7.845 7.845 0 01-7.85 7.857h-15.7a7.85 7.85 0 01-7.85-7.857v-6.58C6.417 83.285 0 73.832 0 62.856c0-15.199 12.3-27.5 27.475-27.5h7.85c5.667 0 11.333 1.842 15.798 4.985zM15.7 52.47a15.615 15.615 0 00-3.925 10.386c0 3.978 1.482 7.636 3.925 10.386V52.471zm94.2 41.815v-5.28a35.217 35.217 0 007.85-22.22c0-10.51-4.587-19.962-11.873-26.444a27.339 27.339 0 0115.798-4.985h7.85c15.185 0 27.475 12.301 27.475 27.5 0 10.976-6.427 20.429-15.7 24.848v6.58a7.845 7.845 0 01-7.85 7.858h-15.7a7.845 7.845 0 01-7.85-7.857zm31.4-21.043c2.232-2.75 3.925-6.408 3.925-10.386 0-3.977-1.693-7.636-3.925-10.386v20.772zm-1.963-59.493c0 7.587-6.157 13.75-13.737 13.75s-13.738-6.163-13.738-13.75C111.862 6.156 118.02 0 125.6 0c7.58 0 13.737 6.156 13.737 13.75zM62.8 15.714C62.8 7.034 69.84 0 78.5 0s15.7 7.035 15.7 15.714c0 8.668-7.04 15.715-15.7 15.715s-15.7-7.047-15.7-15.715zm47.1 51.072c0 10.975-6.427 20.428-15.7 24.848v10.509A7.845 7.845 0 0186.35 110h-15.7a7.845 7.845 0 01-7.85-7.857v-10.51c-9.273-4.419-15.7-13.872-15.7-24.847 0-15.199 12.29-27.5 27.475-27.5h7.85c15.185 0 27.475 12.301 27.475 27.5zM62.8 77.172V56.4c-2.453 2.75-3.925 6.408-3.925 10.386 0 3.977 1.472 7.636 3.925 10.386zM94.2 56.4v20.772c2.232-2.775 3.925-6.409 3.925-10.386 0-3.978-1.693-7.636-3.925-10.386z" fill="#DDD"/></svg>