<svg width="113" height="117" viewBox="0 0 113 117" fill="none" xmlns="http://www.w3.org/2000/svg"><path d="M49.048 7.313c0-4.038 3.444-7.313 7.25-7.313 4.215 0 7.455 3.275 7.455 7.313H98.51c.952 0 1.881.386 2.561 1.071l10.875 10.969c1.405 1.426 1.405 3.75 0 5.167l-10.875 10.969a3.625 3.625 0 01-2.56 1.074H12.795c-3.8 0-7.25-3.268-7.25-7.313V14.625c0-4.038 3.45-7.313 7.25-7.313h36.252zm58.208 65.812c0 4.045-3.24 7.313-7.25 7.313H14.502a3.614 3.614 0 01-2.565-1.075L1.061 68.395a3.672 3.672 0 010-5.165l10.876-10.968c.68-.686 1.602-1.28 2.565-1.28h34.546v-7.313h14.705v7.313h36.253c4.01 0 7.25 3.473 7.25 7.312v14.831zM56.299 117c-3.807 0-7.25-3.268-7.25-7.312V87.75h14.704v21.938c0 4.044-3.24 7.312-7.454 7.312z" fill="#555"/></svg>