<svg xmlns="http://www.w3.org/2000/svg" width="40" height="40" viewBox="0 0 40 40"><path fill="#FFF" d="M38.589 2.067H1.409C.635 2.067 0 2.7 0 3.477v27.384c0 .459.374.834.831.834h14.723c-.074 1.63-.434 4.91-2.131 5.629 0 0-.661.609 1.183.609h10.651c1.841 0 1.185-.609 1.185-.609-1.696-.719-2.056-3.999-2.129-5.629h14.873a.817.817 0 00.811-.834v-3.586c0-.018.004-.029.004-.04V3.477a1.416 1.416 0 00-1.412-1.41zM19.026 28.846a.974.974 0 111.947-.005.974.974 0 01-1.947.005zm19.764-2.554H1.206V3.477c0-.112.093-.204.204-.204h37.179c.109 0 .203.092.203.204v22.815h-.002z"/></svg>