<svg xmlns="http://www.w3.org/2000/svg" width="133.027" height="134.894" viewBox="0 0 133.027 134.894"><g fill="#FFF" stroke="#B3B3B3" stroke-miterlimit="10" stroke-dasharray="3,5"><path d="M-107.987-596.818h24v24h-24zm24 0h24v24h-24z"/><path d="M-59.987-596.818h24v24h-24zm24 0h25v24h-25zm25 0h24v24h-24zm24 0h24v24h-24zm24 0h24v24h-24zm24 0h24v24h-24zm24 0h24v24h-24zm24 0h24v24h-24zm24 0h24v24h-24zm24 0h25v24h-25zm25 0h24v24h-24zm24 0h24v24h-24zm24 0h24v24h-24zm-338 24h24v24h-24zm24 0h24v24h-24z"/><path d="M-59.987-572.818h24v24h-24zm24 0h25v24h-25zm25 0h24v24h-24zm24 0h24v24h-24zm24 0h24v24h-24zm24 0h24v24h-24zm24 0h24v24h-24zm24 0h24v24h-24zm24 0h24v24h-24zm24 0h25v24h-25zm25 0h24v24h-24zm24 0h24v24h-24zm24 0h24v24h-24zm-338 24h24v24h-24zm24 0h24v24h-24z"/><path d="M-59.987-548.818h24v24h-24zm24 0h25v24h-25zm25 0h24v24h-24zm24 0h24v24h-24zm24 0h24v24h-24zm24 0h24v24h-24zm24 0h24v24h-24zm24 0h24v24h-24zm24 0h24v24h-24zm24 0h25v24h-25zm25 0h24v24h-24zm24 0h24v24h-24zm24 0h24v24h-24zm-338 24h24v25h-24zm24 0h24v25h-24z"/><path d="M-59.987-524.818h24v25h-24zm24 0h25v25h-25zm25 0h24v25h-24zm24 0h24v25h-24zm24 0h24v25h-24zm24 0h24v25h-24zm24 0h24v25h-24zm24 0h24v25h-24zm24 0h24v25h-24zm24 0h25v25h-25zm25 0h24v25h-24zm24 0h24v25h-24zm24 0h24v25h-24zm-338 25h24v24h-24zm24 0h24v24h-24z"/><path d="M-59.987-499.818h24v24h-24zm24 0h25v24h-25zm25 0h24v24h-24zm24 0h24v24h-24zm24 0h24v24h-24zm24 0h24v24h-24zm24 0h24v24h-24zm24 0h24v24h-24zm24 0h24v24h-24zm24 0h25v24h-25zm25 0h24v24h-24zm24 0h24v24h-24zm24 0h24v24h-24zm-338 24h24v24h-24zm24 0h24v24h-24z"/><path d="M-59.987-475.818h24v24h-24zm24 0h25v24h-25zm25 0h24v24h-24zm24 0h24v24h-24zm24 0h24v24h-24zm24 0h24v24h-24zm24 0h24v24h-24zm24 0h24v24h-24zm24 0h24v24h-24zm24 0h25v24h-25zm25 0h24v24h-24zm24 0h24v24h-24zm24 0h24v24h-24zm-338 24h24v24h-24zm24 0h24v24h-24z"/><path d="M-59.987-451.818h24v24h-24zm24 0h25v24h-25zm25 0h24v24h-24zm24 0h24v24h-24zm24 0h24v24h-24zm24 0h24v24h-24zm24 0h24v24h-24zm24 0h24v24h-24zm24 0h24v24h-24zm24 0h25v24h-25zm25 0h24v24h-24zm24 0h24v24h-24zm24 0h24v24h-24zm-338 24h24v24h-24zm24 0h24v24h-24z"/><path d="M-59.987-427.818h24v24h-24zm24 0h25v24h-25zm25 0h24v24h-24zm24 0h24v24h-24zm24 0h24v24h-24zm24 0h24v24h-24zm24 0h24v24h-24zm24 0h24v24h-24zm24 0h24v24h-24zm24 0h25v24h-25zm25 0h24v24h-24zm24 0h24v24h-24zm24 0h24v24h-24zm-338 24h24v24h-24zm24 0h24v24h-24z"/><path d="M-59.987-403.818h24v24h-24zm24 0h25v24h-25zm25 0h24v24h-24zm24 0h24v24h-24zm24 0h24v24h-24zm24 0h24v24h-24zm24 0h24v24h-24zm24 0h24v24h-24zm24 0h24v24h-24zm24 0h25v24h-25zm25 0h24v24h-24zm24 0h24v24h-24zm24 0h24v24h-24zm-338 24h24v24h-24zm24 0h24v24h-24z"/><path d="M-59.987-379.818h24v24h-24zm24 0h25v24h-25zm25 0h24v24h-24zm24 0h24v24h-24zm24 0h24v24h-24zm24 0h24v24h-24zm24 0h24v24h-24zm24 0h24v24h-24zm24 0h24v24h-24zm24 0h25v24h-25zm25 0h24v24h-24zm24 0h24v24h-24zm24 0h24v24h-24zm-338 24h24v24h-24zm24 0h24v24h-24z"/><path d="M-59.987-355.818h24v24h-24zm24 0h25v24h-25zm25 0h24v24h-24zm24 0h24v24h-24zm24 0h24v24h-24zm24 0h24v24h-24zm24 0h24v24h-24zm24 0h24v24h-24zm24 0h24v24h-24zm24 0h25v24h-25zm25 0h24v24h-24zm24 0h24v24h-24zm24 0h24v24h-24zm-338 24h24v25h-24zm24 0h24v25h-24z"/><path d="M-59.987-331.818h24v25h-24zm24 0h25v25h-25zm25 0h24v25h-24zm24 0h24v25h-24zm24 0h24v25h-24zm24 0h24v25h-24zm24 0h24v25h-24zm24 0h24v25h-24zm24 0h24v25h-24zm24 0h25v25h-25zm25 0h24v25h-24zm24 0h24v25h-24zm24 0h24v25h-24zm-338 25h24v24h-24zm24 0h24v24h-24z"/><path d="M-59.987-306.818h24v24h-24zm24 0h25v24h-25zm25 0h24v24h-24zm24 0h24v24h-24zm24 0h24v24h-24zm24 0h24v24h-24zm24 0h24v24h-24zm24 0h24v24h-24zm24 0h24v24h-24zm24 0h25v24h-25zm25 0h24v24h-24zm24 0h24v24h-24zm24 0h24v24h-24zm-338 24h24v24h-24zm24 0h24v24h-24z"/><path d="M-59.987-282.818h24v24h-24zm24 0h25v24h-25zm25 0h24v24h-24zm24 0h24v24h-24zm24 0h24v24h-24zm24 0h24v24h-24zm24 0h24v24h-24zm24 0h24v24h-24zm24 0h24v24h-24zm24 0h25v24h-25zm25 0h24v24h-24zm24 0h24v24h-24zm24 0h24v24h-24zm-338 24h24v24h-24zm24 0h24v24h-24z"/><path d="M-59.987-258.818h24v24h-24zm24 0h25v24h-25zm25 0h24v24h-24zm24 0h24v24h-24zm24 0h24v24h-24zm24 0h24v24h-24zm24 0h24v24h-24zm24 0h24v24h-24zm24 0h24v24h-24zm24 0h25v24h-25zm25 0h24v24h-24zm24 0h24v24h-24zm24 0h24v24h-24z"/></g><path fill="none" stroke="#B3B3B3" stroke-miterlimit="10" d="M-34.487-619.818h214"/><path fill="#B3B3B3" d="M-31.81-618.318l-1.99-1.5 1.99-1.5h-1.689l-1.988 1.5 1.988 1.5zm208.646 0l1.99-1.5-1.99-1.5h1.689l1.988 1.5-1.988 1.5z"/><path fill="none" stroke="#B3B3B3" stroke-miterlimit="10" d="M-133.987-522.318v213"/><path fill="#B3B3B3" d="M-135.487-520.142l2-1.989 2 1.989v-1.688l-2-1.988-2 1.988zm0 208.647l2 1.989 2-1.989v1.688l-2 1.989-2-1.989z"/><path fill="#FFF" stroke="#B3B3B3" stroke-miterlimit="10" stroke-dasharray="3,5" d="M254.013-620.818h24v24h-24zm-412 410h24v24h-24zm26-72h24v24h-24z"/><path fill="none" stroke="#B3B3B3" stroke-miterlimit="10" d="M72.013-649.318v21"/><path fill="#B3B3B3" d="M71.513-647.797l1-1.364 1 1.364v-1.158l-1-1.363-1 1.363z"/><path fill="none" stroke="#B3B3B3" stroke-miterlimit="10" d="M72.013-190.318v-21"/><path fill="#B3B3B3" d="M73.513-191.84l-1 1.364-1-1.364v1.158l1 1.364 1-1.364z"/><path fill="none" stroke="#B3B3B3" stroke-miterlimit="10" d="M295.513-415.818h-22"/><path fill="#B3B3B3" d="M293.492-417.318l1.364 1.5-1.364 1.5h1.158l1.363-1.5-1.363-1.5z"/><path fill="none" stroke="#B3B3B3" stroke-miterlimit="10" d="M-164.487-415.818h21"/><path fill="#B3B3B3" d="M-162.465-414.318l-1.365-1.5 1.365-1.5h-1.158l-1.364 1.5 1.364 1.5z"/><path fill="#FFF" stroke="#B3B3B3" stroke-miterlimit="10" stroke-dasharray="3,5" d="M765.013-596.818h24v24h-24zm24 0h24v24h-24zm-24 24h24v24h-24zm24 0h24v24h-24zm0 24h24v24h-24zm0 24h24v25h-24zm0 25h24v24h-24zm24-121h24v24h-24z"/><linearGradient id="a" gradientUnits="userSpaceOnUse" x1="6.407" y1="94.406" x2="6.407" y2="-6.268"><stop offset="0"/><stop offset=".328"/><stop offset=".524"/><stop offset=".73"/><stop offset="1"/></linearGradient><path fill="url(#a)" d="M12.773 119.219l.041-.127-2.118-.523-.042.125c-.252 1.133-.734 1.992-1.426 2.58-.713.566-1.572.859-2.602.859a4.634 4.634 0 01-2.348-.629c-.713-.42-1.238-1.069-1.572-1.93-.357-.859-.525-1.887-.525-3.041 0-.902.146-1.782.441-2.621a4.117 4.117 0 011.488-2.014c.713-.482 1.615-.733 2.664-.733.922 0 1.677.21 2.285.671.608.44 1.069 1.153 1.384 2.139l.042.105 2.098-.482-.042-.126c-.399-1.3-1.091-2.327-2.077-3.062-.984-.714-2.201-1.07-3.648-1.07-1.258 0-2.433.273-3.502.84a6.038 6.038 0 00-2.454 2.516c-.566 1.091-.86 2.391-.86 3.837 0 1.343.252 2.622.756 3.775.503 1.174 1.258 2.097 2.244 2.705.965.629 2.244.943 3.795.943 1.489 0 2.77-.419 3.818-1.216 1.048-.796 1.761-1.99 2.16-3.521z"/><linearGradient id="b" gradientUnits="userSpaceOnUse" x1="26.248" y1="115.498" x2="26.248" y2="19.944"><stop offset="0"/><stop offset=".328"/><stop offset=".524"/><stop offset=".73"/><stop offset="1"/></linearGradient><path fill="url(#b)" d="M29.865 110.263c-1.07-.628-2.286-.943-3.607-.943-2.034 0-3.712.671-4.991 1.992-1.278 1.321-1.929 3.188-1.929 5.516 0 1.237.271 2.412.838 3.524a6.3 6.3 0 002.434 2.642c1.068.649 2.285.964 3.628.964a7.171 7.171 0 003.503-.881c1.09-.565 1.928-1.447 2.537-2.579.587-1.111.881-2.411.881-3.837 0-1.406-.294-2.664-.84-3.775a6.305 6.305 0 00-2.454-2.623zm-.231 10.444c-.881.943-2.034 1.426-3.397 1.426-1.343 0-2.476-.482-3.377-1.404-.881-.943-1.342-2.244-1.342-3.88 0-2.034.482-3.524 1.405-4.384.922-.859 2.055-1.3 3.334-1.3.923 0 1.74.23 2.475.671.713.44 1.279 1.09 1.657 1.908.377.818.565 1.805.565 2.916.001 1.74-.439 3.104-1.32 4.047z"/><linearGradient id="c" gradientUnits="userSpaceOnUse" x1="53.259" y1="180.598" x2="53.259" y2="-52.033"><stop offset="0"/><stop offset=".328"/><stop offset=".524"/><stop offset=".73"/><stop offset="1"/></linearGradient><path fill="url(#c)" d="M52.242 109.802h2.035v14.155h-2.035z"/><linearGradient id="d" gradientUnits="userSpaceOnUse" x1="47.398" y1="148.397" x2="47.398" y2="7.746"><stop offset="0"/><stop offset=".328"/><stop offset=".524"/><stop offset=".73"/><stop offset="1"/></linearGradient><path fill="url(#d)" d="M47.482 121.42l-.566-1.678-3.377-9.94h-.23v5.138l3.125 9.018H48.3l3.188-8.996v-5.033l-3.377 9.626a47.65 47.65 0 00-.629 1.865z"/><linearGradient id="e" gradientUnits="userSpaceOnUse" x1="41.525" y1="151.523" x2="41.525" y2="-80.255"><stop offset="0"/><stop offset=".328"/><stop offset=".524"/><stop offset=".73"/><stop offset="1"/></linearGradient><path fill="url(#e)" d="M40.498 109.802h2.055v14.155h-2.055z"/><linearGradient id="f" gradientUnits="userSpaceOnUse" x1="62.676" y1="202.572" x2="62.676" y2="-26.699"><stop offset="0"/><stop offset=".328"/><stop offset=".524"/><stop offset=".73"/><stop offset="1"/></linearGradient><path fill="url(#f)" d="M61.617 109.802h2.118v14.155h-2.118z"/><linearGradient id="g" gradientUnits="userSpaceOnUse" x1="68.59" y1="151.191" x2="68.59" y2="66.683"><stop offset="0"/><stop offset=".328"/><stop offset=".524"/><stop offset=".73"/><stop offset="1"/></linearGradient><path fill="url(#g)" d="M71.054 110.619c-.482-.335-1.09-.566-1.783-.67-.503-.105-1.236-.147-2.18-.147H64.49v1.888h2.748c.838 0 1.404.042 1.719.125.462.126.84.378 1.112.776.294.398.419.86.419 1.427 0 .754-.23 1.342-.713 1.762-.482.419-1.321.629-2.496.629H64.49v1.908h2.769c2.013 0 3.46-.44 4.236-1.279.797-.839 1.196-1.867 1.196-3.083 0-.713-.148-1.363-.441-1.95-.315-.589-.692-1.071-1.196-1.386z"/><linearGradient id="h" gradientUnits="userSpaceOnUse" x1="86.846" y1="176.655" x2="86.846" y2="78.731"><stop offset="0"/><stop offset=".328"/><stop offset=".524"/><stop offset=".73"/><stop offset="1"/></linearGradient><path fill="url(#h)" d="M87.748 109.802h-2.181l-5.536 14.155h2.244l.629-1.656h-.021l1.593-4.299.336-.881 1.174-3.125h.021c.252-.691.462-1.405.629-2.098.21.672.504 1.489.86 2.412l1.427 3.691h-3.629l-.65 1.74h4.949l1.657 4.215h2.411l-5.913-14.154z"/><linearGradient id="i" gradientUnits="userSpaceOnUse" x1="106.435" y1="328.514" x2="106.435" y2="75.888"><stop offset="0"/><stop offset=".328"/><stop offset=".524"/><stop offset=".73"/><stop offset="1"/></linearGradient><path fill="url(#i)" d="M103.519 114.332l5.831 8.557v-3.629l-5.831-8.535z"/><linearGradient id="j" gradientUnits="userSpaceOnUse" x1="111.154" y1="321.174" x2="111.154" y2="91.069"><stop offset="0"/><stop offset=".328"/><stop offset=".524"/><stop offset=".73"/><stop offset="1"/></linearGradient><path fill="url(#j)" d="M110.146 120.435l-.041-.064v3.586h2.098v-14.155h-2.057z"/><linearGradient id="k" gradientUnits="userSpaceOnUse" x1="101.779" y1="302.315" x2="101.779" y2="67.118"><stop offset="0"/><stop offset=".328"/><stop offset=".524"/><stop offset=".73"/><stop offset="1"/></linearGradient><path fill="url(#k)" d="M100.792 109.802h1.973v14.155h-1.973z"/><linearGradient id="l" gradientUnits="userSpaceOnUse" x1="129.074" y1="240.802" x2="129.074" y2="125.832"><stop offset="0"/><stop offset=".328"/><stop offset=".524"/><stop offset=".73"/><stop offset="1"/></linearGradient><path fill="url(#l)" d="M127.742 113.954c-.545.817-1.026 1.595-1.447 2.265v-.021l-1.174 1.782v5.977h2.139v-5.977l5.768-8.179h-2.496l-2.79 4.153z"/><linearGradient id="m" gradientUnits="userSpaceOnUse" x1="122.699" y1="263.342" x2="122.699" y2="116.786"><stop offset="0"/><stop offset=".328"/><stop offset=".524"/><stop offset=".73"/><stop offset="1"/></linearGradient><path fill="url(#m)" d="M124.974 114.059l-2.832-4.257h-2.6l5.118 7.508 1.195-1.846z"/><linearGradient id="n" gradientUnits="userSpaceOnUse" x1="2.107" y1="97.894" x2="2.107" y2="-14.508"><stop offset="0"/><stop offset=".328"/><stop offset=".524"/><stop offset=".73"/><stop offset="1"/></linearGradient><path fill="url(#n)" d="M.005 130.408h1.577v4.395h1.064v-4.395h1.563v-.896H.005z"/><linearGradient id="o" gradientUnits="userSpaceOnUse" x1="13.822" y1="113.945" x2="13.822" y2="20.088"><stop offset="0"/><stop offset=".328"/><stop offset=".524"/><stop offset=".73"/><stop offset="1"/></linearGradient><path fill="url(#o)" d="M14.357 129.514h-1.133l-2.057 5.288h1.131l.439-1.2h2.119l.453 1.2h1.166l-2.118-5.288zm-1.303 3.189l.727-1.955.727 1.955h-1.454z"/><linearGradient id="p" gradientUnits="userSpaceOnUse" x1="26.124" y1="126.757" x2="26.124" y2="29.631"><stop offset="0"/><stop offset=".328"/><stop offset=".524"/><stop offset=".73"/><stop offset="1"/></linearGradient><path fill="url(#p)" d="M26.298 132.853h1.225v.681a2.026 2.026 0 01-1.258.442c-.49 0-.867-.169-1.127-.505-.262-.336-.393-.795-.393-1.376 0-1.179.511-1.768 1.53-1.768.634 0 1.034.283 1.2.849l1.055-.201c-.228-1.037-.979-1.555-2.255-1.555-.731 0-1.353.227-1.863.681-.509.454-.764 1.134-.764 2.038 0 .811.228 1.471.686 1.984.457.514 1.128.771 2.011.771.913 0 1.664-.272 2.254-.815v-2.107h-2.301v.881z"/><linearGradient id="q" gradientUnits="userSpaceOnUse" x1="41.213" y1="149.046" x2="41.213" y2="23.058"><stop offset="0"/><stop offset=".328"/><stop offset=".524"/><stop offset=".73"/><stop offset="1"/></linearGradient><path fill="url(#q)" d="M40.427 129.512h-1.076v5.291h3.725v-.897h-2.649z"/><linearGradient id="r" gradientUnits="userSpaceOnUse" x1="51.17" y1="181.984" x2="51.17" y2="-20.79"><stop offset="0"/><stop offset=".328"/><stop offset=".524"/><stop offset=".73"/><stop offset="1"/></linearGradient><path fill="url(#r)" d="M50.631 129.512h1.077v5.291h-1.077z"/><linearGradient id="s" gradientUnits="userSpaceOnUse" x1="61.626" y1="164.011" x2="61.626" y2="74.688"><stop offset="0"/><stop offset=".328"/><stop offset=".524"/><stop offset=".73"/><stop offset="1"/></linearGradient><path fill="url(#s)" d="M62.742 133.046l-2.176-3.534h-1.041v5.291h.996v-3.455l2.141 3.455h1.064v-5.291h-.984z"/><linearGradient id="t" gradientUnits="userSpaceOnUse" x1="73.664" y1="177.569" x2="73.664" y2="83.687"><stop offset="0"/><stop offset=".328"/><stop offset=".524"/><stop offset=".73"/><stop offset="1"/></linearGradient><path fill="url(#t)" d="M72.723 132.469h2.65v-.895h-2.65v-1.166h2.855v-.896h-3.931v5.291h4.032v-.897h-2.956z"/><linearGradient id="u" gradientUnits="userSpaceOnUse" x1="95.089" y1="192.221" x2="95.089" y2="103.25"><stop offset="0"/><stop offset=".328"/><stop offset=".524"/><stop offset=".73"/><stop offset="1"/></linearGradient><path fill="url(#u)" d="M96.136 131.597h-2.094v-2.085h-1.065v5.291h1.065v-2.313h2.094v2.313h1.065v-5.291h-1.065z"/><linearGradient id="v" gradientUnits="userSpaceOnUse" x1="107.115" y1="207.458" x2="107.115" y2="113.575"><stop offset="0"/><stop offset=".328"/><stop offset=".524"/><stop offset=".73"/><stop offset="1"/></linearGradient><path fill="url(#v)" d="M106.174 132.469h2.65v-.895h-2.65v-1.166h2.855v-.896h-3.93v5.291h4.031v-.897h-2.956z"/><linearGradient id="w" gradientUnits="userSpaceOnUse" x1="119.226" y1="217.834" x2="119.226" y2="125.422"><stop offset="0"/><stop offset=".328"/><stop offset=".524"/><stop offset=".73"/><stop offset="1"/></linearGradient><path fill="url(#w)" d="M119.779 132.469c.93-.137 1.395-.627 1.395-1.473 0-.574-.172-.966-.516-1.174-.343-.207-.861-.311-1.557-.311h-2.254v5.291h1.064v-2.211h.213c.303 0 .523.041.664.12s.267.206.379.382l1.156 1.709h1.281l-.648-1.031c-.429-.679-.822-1.113-1.177-1.302zm-1.076-.726h-.791v-1.335h.838c.574 0 .938.043 1.093.129.155.087.232.262.232.525 0 .281-.095.465-.284.551-.189.087-.551.13-1.088.13z"/><linearGradient id="x" gradientUnits="userSpaceOnUse" x1="130.985" y1="231.222" x2="130.985" y2="137.339"><stop offset="0"/><stop offset=".328"/><stop offset=".524"/><stop offset=".73"/><stop offset="1"/></linearGradient><path fill="url(#x)" d="M130.044 132.469h2.651v-.895h-2.651v-1.166h2.855v-.896h-3.931v5.291h4.033v-.897h-2.957z"/><linearGradient id="y" gradientUnits="userSpaceOnUse" x1="21.25" y1="45.451" x2="111.777" y2="45.451"><stop offset="0"/><stop offset=".328"/><stop offset=".524"/><stop offset=".73"/><stop offset="1"/></linearGradient><path fill="url(#y)" d="M61.947 78.78v2.058h-.096v.076H30.804l.502-2.468c.09-.444.186-.876.283-1.28.093-.393.197-.795.309-1.188l.063-.215.062-.212c.091-.313.179-.602.271-.896l.002-.008.01-.028c.079-.243.157-.484.249-.728a48.848 48.848 0 01.686-1.842c.12-.296.245-.584.385-.889a4.2 4.2 0 01.167-.37c.127-.288.249-.552.374-.801a13.8 13.8 0 01.158-.321c.127-.264.268-.535.408-.791a4.934 4.934 0 01.201-.369l.014-.03.021-.035c.184-.342.354-.643.521-.922.162-.275.333-.564.519-.854l.066-.104c.053-.085.105-.167.16-.251l.072-.113c.183-.293.385-.597.594-.89.227-.327.468-.675.74-1.03.177-.248.37-.503.624-.817l.019-.023.02-.022.051-.061a29.573 29.573 0 011.006-1.21c.227-.267.455-.522.696-.776.067-.076.141-.155.216-.231a35.659 35.659 0 019.457-7.243H34.292A45.011 45.011 0 0024.832 68a44.984 44.984 0 00-3.574 17.568l-.008 3.985v.683h49.813V49.779h.007v-1.152l-.007-6.254V10.014h.116l2.059-.021h28.989l-.502 2.468c-1.398 6.888-4.788 13.175-9.801 18.181a36.353 36.353 0 01-3.339 2.947h13.2a44.831 44.831 0 006.414-10.688 45.058 45.058 0 003.568-17.563l.01-4.674h-49.83V78.78z"/><linearGradient id="z" gradientUnits="userSpaceOnUse" x1="21.257" y1="23.518" x2="52.343" y2="23.518"><stop offset="0"/><stop offset=".328"/><stop offset=".524"/><stop offset=".73"/><stop offset="1"/></linearGradient><path fill="url(#z)" d="M30.585 40.45V9.523l2.459.49c6.934 1.379 13.256 4.766 18.285 9.795.345.345.682.697 1.014 1.057V8.475a45.055 45.055 0 00-8.777-4.933C38.007 1.191 32.094 0 25.99 0h-4.732v47.035h31.086V40.45H30.585z"/><linearGradient id="A" gradientUnits="userSpaceOnUse" x1="80.714" y1="65.344" x2="111.095" y2="65.344"><stop offset="0"/><stop offset=".328"/><stop offset=".524"/><stop offset=".73"/><stop offset="1"/></linearGradient><path fill="url(#A)" d="M101.773 47.035v33.668l-2.457-.486c-6.92-1.368-13.242-4.753-18.286-9.789-.106-.105-.21-.213-.315-.319v12.149a44.774 44.774 0 008.077 4.428 44.885 44.885 0 0017.577 3.551h4.727V40.45H80.714v6.585h21.059z"/></svg>