<svg xmlns="http://www.w3.org/2000/svg" viewBox="0 0 86 86"><path d="M85 37.07c0-18.8-18.84-34.09-42-34.09S1 18.27 1 37.06c0 16.85 14.94 30.96 35.13 33.63 1.37.3 3.23.9 3.7 2.07.42 1.06.28 2.72.14 3.8 0 0-.49 2.96-.6 3.6-.18 1.06-.84 4.15 3.64 2.26 4.48-1.89 24.19-14.24 33-24.38C82.08 51.36 85 44.59 85 37.07zM28.18 47.1c0 .45-.37.82-.82.82H15.6c-.22 0-.42-.09-.56-.23l-.01-.01-.01-.01a.83.83 0 01-.23-.56V28.8c0-.45.37-.82.82-.82h2.95c.45 0 .82.37.82.82v14.53h8c.45 0 .82.37.82.82v2.95zm7.1 0c0 .45-.37.82-.82.82h-2.95c-.45 0-.82-.37-.82-.82V28.8c0-.45.37-.82.82-.82h2.95c.45 0 .82.37.82.82v18.3zm20.28 0c0 .45-.37.82-.82.82H51.8c-.07 0-.14-.01-.21-.03h-.01c-.02-.01-.04-.01-.06-.02-.01 0-.02-.01-.02-.01-.01-.01-.03-.01-.04-.02-.01-.01-.03-.01-.04-.02-.01 0-.02-.01-.02-.01-.02-.01-.03-.02-.05-.03 0 0-.01 0-.01-.01a.796.796 0 01-.21-.2l-8.4-11.34V47.1c0 .45-.37.82-.82.82h-2.95c-.45 0-.82-.37-.82-.82V28.8c0-.45.37-.82.82-.82h3.02c.01 0 .03 0 .04.01h.03c.02 0 .03.01.05.01.01 0 .02 0 .03.01.02 0 .03.01.05.02.01 0 .02.01.03.01.02.01.03.01.05.02.01 0 .02.01.03.01.01.01.03.02.04.02.01 0 .02.01.02.01.01.01.03.02.04.03l.02.02c.02.01.03.02.04.04.01 0 .01.01.02.01l.05.05.01.01c.02.03.04.05.06.08l8.39 11.33V28.8c0-.45.37-.82.82-.82h2.95c.45 0 .82.37.82.82v18.3zm16.27-15.35c0 .45-.37.82-.82.82h-8v3.09h8c.45 0 .82.37.82.82v2.95c0 .45-.37.82-.82.82h-8v3.09h8c.45 0 .82.37.82.82v2.95c0 .45-.37.82-.82.82H59.24c-.22 0-.42-.09-.56-.23l-.01-.01-.01-.01a.83.83 0 01-.23-.56V28.8c0-.22.09-.42.23-.56l.01-.01.01-.01c.15-.14.35-.23.57-.23h11.77c.45 0 .82.37.82.82v2.94z" fill="#fff"/></svg>